<svg data-name="Component 100 – 18" xmlns="http://www.w3.org/2000/svg" viewBox="0 0 24 24">
  <g data-name="Group 449">
    <path data-name="Path 857" d="M15.254 5.796v4.842h-4.612a1.888 1.888 0 00-1.959 1.8v2.4H7.128l-1.123 2.07a.637.637 0 01-.291.268.682.682 0 01-.876-.268l-1.124-2.07h-.9a1.885 1.885 0 01-1.959-1.8V5.796a1.885 1.885 0 011.959-1.8h10.483a1.885 1.885 0 011.957 1.8z" stroke="#000e7a" stroke-width="1.2" fill="none"/>
    <g data-name="Group 381">
      <path data-name="Path 860" d="M23.144 9.48v7.465a1.855 1.855 0 01-1.959 1.722h-.9l-1.167 2.018a.628.628 0 01-.291.256.7.7 0 01-.876-.256l-1.124-2.018H10.66a1.855 1.855 0 01-1.959-1.722V9.48a1.855 1.855 0 011.959-1.724h10.527a1.856 1.856 0 011.957 1.724z" fill="#386fff" stroke="#000e7a" stroke-width="1.2"/>
    </g>
    <g data-name="Group 448" fill="#fff">
      <path data-name="Path 858" d="M16.573 16.224a.656.656 0 01-.652.652.653.653 0 11.654-.652z"/>
      <path data-name="Path 859" d="M17.878 11.655a1.957 1.957 0 01-1.2 1.807.159.159 0 00-.1.151.653.653 0 01-1.306 0 1.465 1.465 0 01.9-1.355.653.653 0 10-.9-.6.652.652 0 01-1.3 0 1.958 1.958 0 013.916 0z"/>
    </g>
  </g>
</svg>
