<svg xmlns="http://www.w3.org/2000/svg" fill="none" viewBox="0 0 14 14">
  <path d="M1.466 11.9a4.883 4.883 0 01-.299-6.653 4.973 4.973 0 016.66-.82l2.812-2.79H7.685a.828.828 0 01-.546-.208.816.816 0 01-.269-.516l-.006-.1a.814.814 0 01.209-.54.826.826 0 01.515-.267L7.685 0h4.945a.827.827 0 01.818.722l.006.1v4.903c0 .208-.08.41-.223.561a.827.827 0 01-1.42-.461l-.005-.1V2.792L8.993 5.583a4.879 4.879 0 01-.825 6.607 4.968 4.968 0 01-6.702-.29z" fill="#509FFA"/>
  <path d="M2.632 10.74a3.31 3.31 0 004.58.04 3.256 3.256 0 00.2-4.54l-.125-.133-.112-.106a3.311 3.311 0 00-4.6.171 3.257 3.257 0 00.057 4.567z" fill="#fff"/>
</svg>
