<svg xmlns="http://www.w3.org/2000/svg" viewBox="0 0 72 72">
  <g data-name="Layer 2">
    <g data-name="Layer 1">
      <g data-name="Icon 72 72">
        <rect width="72" height="72" rx="16" style="isolation:isolate" opacity=".3" fill="#386fff"/>
        <g data-name="Group 2368">
          <g data-name="Group 2363">
            <rect x="7" y="7.81" width="57.95" height="57.95" rx="12" fill="#fff"/>
            <g data-name="Group 2">
              <rect x="7" y="7.81" width="57.95" height="57.95" rx="12" fill="#000e7a"/>
              <g data-name="Group 2364">
                <g data-name="Group 2-2">
                  <rect x="7" y="7.81" width="57.95" height="53.75" rx="12" fill="#fafbff"/>
                  <rect x="7" y="7.81" width="57.95" height="49.81" rx="12" fill="#fff"/>
                </g>
              </g>
            </g>
            <path data-name="Combined Shape" d="M34.82 49a2.69 2.69 0 01-2.69-2.69V38.7h-7.61a2.7 2.7 0 01-2.69-2.7v-2.3a2.69 2.69 0 012.69-2.7h7.61v-7.6a2.69 2.69 0 012.69-2.69h2.31a2.68 2.68 0 012.69 2.69V31h7.61a2.68 2.68 0 012.69 2.69V36a2.69 2.69 0 01-2.69 2.69h-7.61v7.61a2.71 2.71 0 01-2.69 2.7z" fill="#386fff"/>
            <path d="M36 14.43l9.71-5.54a1.61 1.61 0 00-.8-3H27.06a1.61 1.61 0 00-.8 3z" fill="#000e7a"/>
          </g>
        </g>
      </g>
    </g>
  </g>
</svg>
