<svg xmlns="http://www.w3.org/2000/svg" viewBox="0 0 144 144">
  <g data-name="Layer 2">
    <g data-name="Layer 1">
      <g data-name="Icon 144 144">
        <rect width="144" height="144" rx="33" style="isolation:isolate" opacity=".3" fill="#386fff"/>
        <g data-name="Group 2368">
          <g data-name="Group 2363">
            <rect x="13" y="14.87" width="117.88" height="117.88" rx="27" fill="#fff"/>
            <g data-name="Group 2">
              <rect x="13" y="14.87" width="117.88" height="117.88" rx="27" fill="#000e7a"/>
              <g data-name="Group 2364">
                <g data-name="Group 2-2">
                  <rect x="13" y="14.87" width="117.88" height="109.34" rx="27" fill="#fafbff"/>
                  <rect x="13" y="14.87" width="117.88" height="101.32" rx="27" fill="#fff"/>
                </g>
              </g>
            </g>
            <path data-name="Combined Shape" d="M69.59 98.65a5.46 5.46 0 01-5.47-5.46V77.7H48.64a5.47 5.47 0 01-5.47-5.47v-4.69a5.47 5.47 0 015.47-5.47h15.48V46.58a5.46 5.46 0 015.47-5.46h4.7a5.45 5.45 0 015.46 5.46v15.49h15.49a5.47 5.47 0 015.47 5.47v4.69a5.47 5.47 0 01-5.47 5.47H79.75v15.49a5.46 5.46 0 01-5.46 5.46z" fill="#386fff"/>
            <path d="M71.93 28.33l19.76-11.26a3.29 3.29 0 00-1.63-6.14H53.8a3.29 3.29 0 00-1.63 6.14z" fill="#000e7a"/>
          </g>
        </g>
      </g>
    </g>
  </g>
</svg>
