<svg xmlns="http://www.w3.org/2000/svg" fill="none" viewBox="0 0 20 24">
  <path d="M10.154 13.656a3.735 3.735 0 01-2.445-1.002 3.936 3.936 0 01-1.223-2.398 1.23 1.23 0 01-.69-.451 1.458 1.458 0 01-.259-.972 1.378 1.378 0 01.308-1.042.956.956 0 01.229-.178 5.267 5.267 0 01-.747-2.927c.05-.73.37-1.414.894-1.91a2.743 2.743 0 011.926-.756 2.78 2.78 0 01.998-.757 3.426 3.426 0 012.262-.13 3.983 3.983 0 011.719.766c.506.39.917.898 1.197 1.482a5.692 5.692 0 01-.252 4.161c.127.041.245.11.345.2a1.335 1.335 0 01.352 1.089c.031.346-.06.691-.259.972a1.23 1.23 0 01-.691.451 3.937 3.937 0 01-1.22 2.398 3.736 3.736 0 01-2.444 1.004zm-3.553-5.53a.419.419 0 00-.304.111.783.783 0 00-.13.58.343.343 0 010 .065.818.818 0 00.133.526.721.721 0 00.503.246.312.312 0 01.19.096c.05.054.081.124.087.198.057.81.402 1.57.97 2.136a3.165 3.165 0 002.107.925 3.166 3.166 0 002.099-.93 3.34 3.34 0 00.964-2.131.328.328 0 01.087-.198.312.312 0 01.19-.096.703.703 0 00.504-.246.818.818 0 00.132-.529.349.349 0 010-.063.793.793 0 00-.142-.595.467.467 0 00-.342-.092.307.307 0 01-.311-.13.33.33 0 01-.022-.343c.012-.023 1.167-2.275.424-4.025a3.522 3.522 0 00-1.03-1.242 3.398 3.398 0 00-1.462-.635 2.81 2.81 0 00-1.847.1 2.128 2.128 0 00-.849.683.314.314 0 01-.279.13 2.11 2.11 0 00-.842.111 2.17 2.17 0 00-.736.436c-.214.193-.39.429-.516.692-.126.264-.2.55-.219.844v0a4.363 4.363 0 00.906 2.833.327.327 0 01.06.356.305.305 0 01-.118.145.292.292 0 01-.18.046l-.027-.004z" fill="#509FFA" stroke="#509FFA" stroke-width=".2"/>
  <path d="M13.59 8.134a.31.31 0 01-.219-.09.328.328 0 01-.097-.22c0-.084-.097-2.041-1.521-2.229-.65.085-1.31.032-1.939-.156a4.753 4.753 0 01-1.719-.934c-.454.392-.8.901-1.001 1.475a3.56 3.56 0 00-.148 1.793.33.33 0 01-.08.224.309.309 0 01-.43.04.326.326 0 01-.116-.205c-.262-2.955 1.584-3.981 1.662-4.023a.307.307 0 01.364.053c.45.418.98.732 1.558.92a4.096 4.096 0 001.79.166.343.343 0 01.087 0c1.601.171 2.09 1.941 2.125 2.851a.33.33 0 01-.083.232.311.311 0 01-.218.104l-.016-.001zm5.42 15.54H1.314a.31.31 0 01-.223-.095A.329.329 0 011 23.35v-3.611a4.375 4.375 0 011.231-3.04 4.134 4.134 0 012.958-1.26h.605a.31.31 0 01.223.095.329.329 0 010 .458.31.31 0 01-.223.095h-.605c-.943 0-1.847.386-2.514 1.07a3.717 3.717 0 00-1.045 2.585v3.288h17.064v-3.291a3.712 3.712 0 00-1.041-2.583 3.508 3.508 0 00-2.512-1.072h-.648a.311.311 0 01-.222-.095.33.33 0 010-.458.31.31 0 01.222-.095h.649a4.132 4.132 0 012.954 1.262 4.372 4.372 0 011.227 3.038v3.612a.331.331 0 01-.091.23.315.315 0 01-.223.096v0z" fill="#509FFA" stroke="#509FFA" stroke-width=".2"/>
  <path d="M11.215 23.674a.309.309 0 01-.238-.113.326.326 0 01-.073-.259l1.275-8.677a.329.329 0 01.143-.226.309.309 0 01.26-.036l2.2.682a.312.312 0 01.2.18.334.334 0 01-.006.274l-.875 1.8.507.585a.329.329 0 01.031.386l-3.153 5.246a.319.319 0 01-.27.158zm1.532-8.583l-.99 6.741 2.221-3.693-.494-.566a.329.329 0 01-.046-.36l.803-1.657-1.494-.465zm-3.673 8.584a.308.308 0 01-.268-.154l-3.154-5.245a.331.331 0 01.031-.386l.508-.585-.875-1.8a.331.331 0 01.075-.387.312.312 0 01.12-.067l2.194-.687a.307.307 0 01.354.133c.025.04.041.083.048.129l1.276 8.677a.333.333 0 01-.073.258.315.315 0 01-.238.113l.002.001zM6.311 18.14l2.222 3.69-.99-6.742-1.495.463.802 1.657a.332.332 0 01-.047.36l-.492.572z" fill="#509FFA" stroke="#509FFA" stroke-width=".2"/>
  <path d="M10.168 17.634a16.61 16.61 0 01-2.042-.127.31.31 0 01-.217-.118.327.327 0 01-.069-.243.33.33 0 01.122-.22.312.312 0 01.24-.062c1.286.163 2.588.163 3.876 0a.308.308 0 01.232.066.324.324 0 01.12.215.331.331 0 01-.157.322.309.309 0 01-.117.04 15.47 15.47 0 01-1.992.127h.004zm2.322-2.637a.309.309 0 01-.251-.131 4.804 4.804 0 01-.561-2.086.33.33 0 01.078-.232.312.312 0 01.214-.11.314.314 0 01.225.081.33.33 0 01.107.219c.02.605.17 1.199.439 1.738a.33.33 0 01-.088.467.309.309 0 01-.164.049l.002.005zm-4.692.001a.31.31 0 01-.165-.049.332.332 0 01-.088-.467c.27-.54.419-1.133.44-1.738a.333.333 0 01.1-.235.314.314 0 01.234-.087.31.31 0 01.223.114.328.328 0 01.072.246 4.835 4.835 0 01-.56 2.086.316.316 0 01-.256.13z" fill="#509FFA" stroke="#509FFA" stroke-width=".2"/>
  <path d="M2.664 21.572a2.038 2.038 0 01-.312-.667 2 2 0 01.055-1.302c.163-.415.46-.76.84-.975-.085-2.326 1.173-3.078 1.23-3.107a.305.305 0 01.426.124.32.32 0 01.03.244.323.323 0 01-.147.193 2.564 2.564 0 00-.754 1.046c-.16.41-.215.854-.16 1.292.372-.042.746.039 1.07.23.347.205.626.513.802.882.177.37.242.785.188 1.193v.033a.328.328 0 01-.1.214.31.31 0 01-.215.086.152.152 0 01-.037 0l-.356-.044a.313.313 0 01-.21-.121.33.33 0 01.053-.454.31.31 0 01.231-.067h.02a1.464 1.464 0 00-.2-.67 1.412 1.412 0 00-.485-.493 1.118 1.118 0 00-.875-.111c-.315.108-.576.34-.727.644a1.34 1.34 0 00-.077.985c.026.098.063.192.11.282l.141-.054a.307.307 0 01.34.082.331.331 0 01-.12.526l-.377.143a.349.349 0 01-.112.023.325.325 0 01-.271-.156v0zm12.603-1.807c0-.28.09-.553.256-.777.165-.223.396-.384.66-.459a3.598 3.598 0 00-.835-2.49.334.334 0 01-.053-.452.307.307 0 01.437-.063c.039.03.948.76 1.082 3 .27.069.509.228.68.454a1.305 1.305 0 01-.102 1.694 1.24 1.24 0 01-.881.373h-.006a1.224 1.224 0 01-.876-.376 1.297 1.297 0 01-.362-.903v-.001zm.628 0a.652.652 0 00.18.448.616.616 0 00.436.186.6.6 0 00.435-.186.631.631 0 00.18-.448.642.642 0 00-.18-.448.607.607 0 00-.435-.185.609.609 0 00-.435.186.644.644 0 00-.18.448v-.001z" fill="#416CE1" stroke="#416CE1" stroke-width=".2"/>
</svg>
