<svg xmlns="http://www.w3.org/2000/svg" fill="none" viewBox="0 0 21 22">
  <path fill-rule="evenodd" clip-rule="evenodd" d="M7.535 5.5c-.671 0-1.216.56-1.216 1.25S6.864 8 7.535 8c.67 0 1.215-.56 1.215-1.25S8.206 5.5 7.535 5.5zM4.86 6.75C4.861 5.231 6.058 4 7.535 4c1.476 0 2.673 1.231 2.673 2.75S9.011 9.5 7.535 9.5C6.058 9.5 4.86 8.269 4.86 6.75zm13.254 5.069c-.485-.429-1.307-.429-1.792 0l-4.044 3.57c-1.032.911-2.66.911-3.692 0l-.006-.006-.318-.286c-.436-.383-1.18-.43-1.682-.084l-4.793 3.31a.717.717 0 01-1.012-.205.763.763 0 01.2-1.04l4.792-3.31c1.034-.714 2.503-.642 3.448.193l.007.006.317.287c.485.426 1.305.425 1.789-.003l4.044-3.57c1.032-.911 2.66-.911 3.692 0l1.585 1.4c.305.27.34.743.078 1.058a.715.715 0 01-1.029.08l-1.584-1.4z" fill="#416CE1"/>
  <path fill-rule="evenodd" clip-rule="evenodd" d="M1.793 1.845C3.091.51 5.033 0 7.535 0h5.833c2.502 0 4.444.51 5.741 1.845 1.298 1.334 1.794 3.331 1.794 5.905v6c0 2.574-.496 4.57-1.794 5.905-1.297 1.335-3.239 1.845-5.74 1.845H7.534c-2.503 0-4.444-.51-5.742-1.845C.496 18.321 0 16.324 0 13.75v-6c0-2.574.496-4.57 1.793-5.905zm1.032 1.06c-.89.916-1.367 2.419-1.367 4.845v6c0 2.426.477 3.93 1.367 4.845.89.915 2.351 1.405 4.71 1.405h5.833c2.359 0 3.82-.49 4.71-1.405.89-.916 1.366-2.419 1.366-4.845v-6c0-2.426-.476-3.93-1.366-4.845-.89-.915-2.351-1.405-4.71-1.405H7.535c-2.359 0-3.82.49-4.71 1.405z" fill="#509FFA"/>
</svg>
