<svg xmlns="http://www.w3.org/2000/svg" fill="none" viewBox="0 0 15 21">
  <path d="M14.178 16.805l-.26-.4c-.182-.275-.22-.357-.446-.693a6.247 6.247 0 01-.292-.446l-1.653-2.524a8.581 8.581 0 01-1.378-4.673V5.515a1.74 1.74 0 001.033-.686 1.83 1.83 0 00-.194-2.36 1.72 1.72 0 00-1.131-.498A2.083 2.083 0 009.462.82a1.993 1.993 0 00-.96-.715A1.936 1.936 0 007.315.081c-.389.116-.734.35-.99.673a.335.335 0 00-.024.367c.021.038.05.071.083.098a.302.302 0 00.433-.048 1.325 1.325 0 011.898-.2 1.384 1.384 0 01.501 1H4.8a1.715 1.715 0 00-1.17.454 1.83 1.83 0 00-.253 2.387c.253.36.626.61 1.047.703v2.554a8.617 8.617 0 01-1.379 4.678L.413 16.796a2.58 2.58 0 00-.124 2.587c.209.402.52.74.9.974a2.4 2.4 0 001.259.36h9.673c.445.002.881-.121 1.263-.355.382-.235.694-.571.904-.974a2.577 2.577 0 00-.125-2.592l.015.009zm-8.93-8.722V5.572h2.46a.32.32 0 00.216-.103.337.337 0 000-.457.32.32 0 00-.217-.103H4.814a1.088 1.088 0 01-.758-.344 1.151 1.151 0 01-.312-.79c0-.295.112-.578.312-.79.2-.211.471-.334.758-.343H9.79a1.074 1.074 0 01.795.305 1.134 1.134 0 01.348.796 1.164 1.164 0 01-.304.815 1.104 1.104 0 01-.777.35h-.737a.32.32 0 00-.217.104.337.337 0 000 .457.32.32 0 00.217.103h.31v2.514A9.102 9.102 0 0010.51 12.5a10.828 10.828 0 01-3.312-.535 3.51 3.51 0 00-2.76 0 8.948 8.948 0 00.811-3.884zm1.754 4.5a12.58 12.58 0 002.778.545 11.384 11.384 0 01-4.532 1.267 1.968 1.968 0 01-1.053-.218 2.037 2.037 0 01-.795-.742 3.197 3.197 0 011.673-1.014 3.131 3.131 0 011.935.163l-.006-.001zm6.144 7.155c-.3.206-.652.317-1.012.317H2.46c-.48 0-.94-.197-1.28-.546a1.894 1.894 0 01-.533-1.315c0-.367.107-.726.308-1.03l2.042-3.157a2.98 2.98 0 001.06.799c.408.181.85.267 1.293.25 2.012-.19 3.963-.81 5.728-1.822.77 1.178 1.533 2.357 2.305 3.534l.26.4c.265.41.361.912.268 1.395-.094.483-.37.908-.769 1.182l.004-.007z" fill="#509FFA"/>
  <path d="M10.102 13.034a11.507 11.507 0 01-5.05 1.605 2.126 2.126 0 01-1.208-.294 2.211 2.211 0 01-.855-.926 3.288 3.288 0 011.822-1.276 3.205 3.205 0 012.197.195c1 .363 2.038.596 3.094.696z" fill="#00B2D8"/>
  <path d="M13.13 19.719a1.738 1.738 0 01-1.01.326H2.472a1.817 1.817 0 01-1.288-.574 1.922 1.922 0 01-.52-1.342c0-.377.106-.745.307-1.06l2.042-3.251a2.93 2.93 0 001.052.82c.406.187.85.276 1.295.26a13.847 13.847 0 005.713-1.875c.77 1.212 1.53 2.426 2.299 3.638l.26.408c.264.423.36.935.266 1.429a1.956 1.956 0 01-.768 1.22z" fill="#00B2D8"/>
</svg>
