<svg xmlns="http://www.w3.org/2000/svg" fill="none" viewBox="0 0 19 21">
  <path d="M5.99 19.651a.669.669 0 01-.242.455.917.917 0 01-.584.233H3.278a3.142 3.142 0 01-2.277-.892A3.324 3.324 0 010 17.16V3.178A3.325 3.325 0 011.001.894 3.142 3.142 0 013.278 0h10.087a3.143 3.143 0 012.277.893 3.326 3.326 0 011.002 2.284v4.728a.725.725 0 01-.165.553.686.686 0 01-.512.24.67.67 0 01-.514-.234.71.71 0 01-.17-.55V3.161a1.916 1.916 0 00-.178-.762 1.86 1.86 0 00-.465-.62 2.011 2.011 0 00-1.349-.47l-9.96.03a2.292 2.292 0 00-1.309.6 2.15 2.15 0 00-.66 1.373L1.4 17.477c.1.49.382.92.786 1.2a2 2 0 001.098.34h2.079a.73.73 0 01.415.21.767.767 0 01.212.424z" fill="#416CE1"/>
  <path d="M18.42 19.76c-.142.18-.321.326-.525.426a1.48 1.48 0 01-.654.152H9.845a1.49 1.49 0 01-1.08-.458 1.608 1.608 0 01-.415-1.44c.17-.837.527-1.62 1.044-2.29a5.34 5.34 0 011.933-1.56 3.077 3.077 0 01-.704-1.557 3.117 3.117 0 01.23-1.701 3.015 3.015 0 011.089-1.302 2.894 2.894 0 011.602-.486c.568 0 1.124.169 1.602.486.477.317.855.769 1.09 1.302.233.532.313 1.123.229 1.7a3.077 3.077 0 01-.704 1.558 5.31 5.31 0 011.912 1.528 5.498 5.498 0 011.048 2.244c.006.02.01.042.015.063a1.627 1.627 0 01-.316 1.334zm-6.319-7.173c0 .293.084.578.242.821.158.243.382.433.645.545a1.4 1.4 0 00.83.084c.279-.057.535-.198.736-.405.2-.206.338-.47.393-.756a1.518 1.518 0 00-.081-.854 1.47 1.47 0 00-.53-.664 1.409 1.409 0 00-1.814.184 1.5 1.5 0 00-.421 1.045zm5.153 6.171a3.92 3.92 0 00-1.322-2.224 3.727 3.727 0 00-2.388-.87 3.73 3.73 0 00-2.389.87 3.92 3.92 0 00-1.321 2.224.023.023 0 00.008.023h7.398a.03.03 0 00.013-.022zm-4.25-14.702H3.67a.69.69 0 00-.68.7c0 .387.304.7.68.7h9.334a.69.69 0 00.68-.7.69.69 0 00-.68-.7zm0 3.4H3.67a.69.69 0 00-.68.7c0 .387.304.7.68.7h9.334a.69.69 0 00.68-.7.69.69 0 00-.68-.7zm-4.862 3.4H3.67a.69.69 0 00-.68.7c0 .387.304.7.68.7h4.472a.69.69 0 00.68-.7.69.69 0 00-.68-.7z" fill="#509FFA"/>
</svg>
