<svg xmlns="http://www.w3.org/2000/svg" fill="none" viewBox="0 0 20 20">
  <path d="M2.646 15.376a.732.732 0 01.024-.461.707.707 0 01.294-.35.652.652 0 01.762.204.68.68 0 01.127.255c.105.461.334.883.662 1.216.241.28.568.466.927.527a1.734 1.734 0 001.258-.608 5.776 5.776 0 001.229-1.792c.642-1.2.934-1.819.972-1.923.084-.26.242-.488.453-.655a.639.639 0 01.39-.142.624.624 0 01.353.131c.212.162.37.387.456.644.2.553.516 1.05.754 1.585a6.18 6.18 0 001.467 2.207 1.69 1.69 0 001.025.554c.231-.012.457-.073.664-.18a1.69 1.69 0 00.539-.437c.305-.33.514-.742.602-1.189a.822.822 0 01.15-.344.791.791 0 01.287-.237.59.59 0 01.414 0 .64.64 0 01.299.258c.07.117.104.253.095.39a3.71 3.71 0 01-.953 2.04 2.911 2.911 0 01-.96.721 2.84 2.84 0 01-1.162.265 3.083 3.083 0 01-1.881-1 7.142 7.142 0 01-1.513-2.054 11.81 11.81 0 01-.661-1.392c-.174.352-.43.854-.762 1.446a8.19 8.19 0 01-1.411 2.108 2.912 2.912 0 01-2.11.892 3.167 3.167 0 01-1.239-.48 3.265 3.265 0 01-.946-.952 4.038 4.038 0 01-.605-1.247z" fill="#509FFA"/>
  <path d="M2.213 11.49a1.449 1.449 0 00.157 1.171c.286.537.747.952 1.3 1.175a3.778 3.778 0 001.866.135 10.71 10.71 0 002.455-.527.678.678 0 00.246-.354.696.696 0 00-.014-.434.674.674 0 00-.267-.336.645.645 0 00-.41-.1c-.522.162-1.053.291-1.59.386a3.772 3.772 0 01-1.681.041 1.117 1.117 0 01-.778-.419c-.183-.3-.006-.574-.236-.9a.696.696 0 00-.534-.313c-.319.025-.488.422-.514.475zm.316-3.7a2.249 2.249 0 00.157 1.54 2.32 2.32 0 001.13 1c.37.167.764.276 1.166.324a6.87 6.87 0 001.314.122c.422.005.844-.013 1.264-.054a.63.63 0 00.387-.17.68.68 0 00.134-.807.652.652 0 00-.311-.293H6.154a3.933 3.933 0 01-1.59-.176c-.35-.137-.642-.251-.777-.54-.195-.433.168-.81-.08-1.21a.635.635 0 00-.534-.312.738.738 0 00-.41.184.773.773 0 00-.234.392zm1.494-3.959a2.86 2.86 0 00-.423.877 1.995 1.995 0 00-.072 1.135c.147.428.438.788.822 1.012.402.257.855.416 1.325.465a6.061 6.061 0 001.708.063.596.596 0 00.393-.14.627.627 0 00.213-.366.648.648 0 00-.157-.477.614.614 0 00-.447-.207 5.17 5.17 0 01-1.314-.075c-.56-.105-1.116-.209-1.254-.594a.965.965 0 01.019-.561c.097-.327.292-.365.327-.628a.69.69 0 00-.235-.615.721.721 0 00-.905.111zm11.375 0c.19.265.333.562.423.877.134.362.159.758.072 1.135a1.872 1.872 0 01-.821 1.012 3.055 3.055 0 01-1.326.465 6.062 6.062 0 01-1.708.063.596.596 0 01-.392-.14.627.627 0 01-.213-.366.648.648 0 01.158-.477.614.614 0 01.446-.207c.44.032.881.007 1.315-.074.56-.105 1.116-.209 1.254-.594a.964.964 0 00-.02-.561c-.097-.327-.291-.365-.325-.628a.689.689 0 01.234-.615.721.721 0 01.903.11zm1.497 3.959a2.249 2.249 0 01-.158 1.54 2.316 2.316 0 01-1.13 1 3.988 3.988 0 01-1.166.324 6.862 6.862 0 01-1.314.122c-.422.005-.844-.013-1.264-.054a.636.636 0 01-.387-.17.679.679 0 01-.133-.807.652.652 0 01.31-.293h1.616a3.933 3.933 0 001.59-.176c.35-.137.642-.251.777-.54.195-.433-.168-.809.08-1.21a.636.636 0 01.534-.312.738.738 0 01.41.184.78.78 0 01.235.392zm.349 3.7a1.449 1.449 0 01-.158 1.171 2.56 2.56 0 01-1.3 1.175 3.772 3.772 0 01-1.866.135 10.705 10.705 0 01-2.455-.527.677.677 0 01-.246-.354.696.696 0 01.014-.434.674.674 0 01.267-.336.645.645 0 01.41-.101c.522.163 1.053.292 1.59.387.551.14 1.125.154 1.681.041a1.117 1.117 0 00.778-.419c.183-.3.006-.574.236-.9a.674.674 0 01.534-.313c.32.025.492.422.515.475zM7.565 4.786a5.85 5.85 0 01-1.528-.614 2.172 2.172 0 01-.758-.615 1.555 1.555 0 01-.31-1.135 1.46 1.46 0 01.52-.905c.172-.13.372-.219.583-.257a3.353 3.353 0 011.75.29 6.28 6.28 0 001.847.375 9.199 9.199 0 001.848-.368c1.173-.292 1.51-.437 1.992-.258.177.056.342.148.483.27a1.444 1.444 0 01.41 1.552c-.17.528-.592.787-1.1 1.101a4.38 4.38 0 01-1.396.551.594.594 0 01-.425-.046.62.62 0 01-.29-.321.644.644 0 01-.015-.439.624.624 0 01.268-.34c.408-.15.759-.289 1.044-.406.354-.145.68-.288.703-.493a.197.197 0 00-.04-.155c-.067-.064-.2-.018-.236-.007a14.14 14.14 0 01-3.218.655 26.85 26.85 0 01-3.313-.687.146.146 0 00-.147.059.157.157 0 00-.014.162c.055.223 1.421.763 1.76.9a.619.619 0 01.25.328.638.638 0 01-.008.418.617.617 0 01-.263.317.59.59 0 01-.4.075l.003-.007z" fill="#509FFA"/>
  <path d="M10.81 4.954a1.636 1.636 0 00-1.135-.507 1.653 1.653 0 00-.678.189 1.7 1.7 0 00-.544.455c-.408.519-.363 1.179-.28 2.493a10.964 10.964 0 00.398 2.239c.075.226.52 1.561 1.088 1.559.59 0 1.033-1.444 1.077-1.589.063-.223.114-.45.153-.678.1-.5.17-1.005.213-1.513.113-1.4.175-2.133-.292-2.648zm-.556 2.56c-.056 1.181-.318 2.807-.602 2.807S9.11 8.687 9.05 7.53a11.66 11.66 0 01.04-1.733.545.545 0 01.206-.302.519.519 0 01.346-.098.54.54 0 01.338.083c.1.064.18.16.223.274.063.584.08 1.173.053 1.76h-.002z" fill="#509FFA"/>
  <path d="M3.015.002L1.557.013C1.144.04.755.223.467.529c-.238.26-.39.591-.434.946L0 2.907a.713.713 0 00.144.448.679.679 0 00.388.252.67.67 0 00.522-.206.71.71 0 00.2-.537V1.755a.51.51 0 01.102-.296.486.486 0 01.253-.176h1.34a.643.643 0 00.357-.218A.675.675 0 003.016 0v.002zm13.393 0l1.458.011c.414.027.802.21 1.091.516.238.26.39.591.434.946l.033 1.432a.714.714 0 01-.144.448.679.679 0 01-.388.252.67.67 0 01-.522-.206.71.71 0 01-.2-.537V1.755a.51.51 0 00-.102-.296.486.486 0 00-.253-.176H16.47a.643.643 0 01-.357-.219A.676.676 0 0116.405 0l.003.002zm0 19.977l1.459-.011c.413-.027.801-.21 1.09-.516.238-.26.39-.592.433-.946l.033-1.432a.713.713 0 00-.144-.448.678.678 0 00-.388-.252.669.669 0 00-.521.206.71.71 0 00-.2.537v1.109a.497.497 0 01-.354.472h-1.34a.643.643 0 00-.36.217.675.675 0 00.293 1.066v-.002zm-13.375 0l-1.458-.011a1.647 1.647 0 01-1.09-.516 1.711 1.711 0 01-.434-.946l-.033-1.432a.713.713 0 01.144-.448.678.678 0 01.388-.252.67.67 0 01.522.206.711.711 0 01.2.537v1.109a.509.509 0 00.102.296.486.486 0 00.253.176h1.34c.14.03.266.106.36.218a.675.675 0 01-.295 1.065l.001-.002z" fill="#416CE1"/>
</svg>
