<svg xmlns="http://www.w3.org/2000/svg" fill="none" viewBox="0 0 15 19">
  <path d="M14.161 14.787l-.258-.393c-.188-.274-.224-.357-.448-.695a5.614 5.614 0 01-.291-.439l-1.644-2.515a8.531 8.531 0 01-1.377-4.664V3.54a1.738 1.738 0 001.03-.686A1.828 1.828 0 0010.98.498 1.718 1.718 0 009.851 0H4.803a1.71 1.71 0 00-1.176.45 1.826 1.826 0 00-.254 2.392c.255.36.63.608 1.054.698v2.542a8.594 8.594 0 01-1.385 4.664L.417 14.787a2.57 2.57 0 00-.005 2.792c.178.275.408.51.676.692a2.41 2.41 0 001.361.421h9.677a2.39 2.39 0 001.257-.353 2.48 2.48 0 00.9-.967 2.57 2.57 0 00-.115-2.58l-.007-.005zm-8.927-8.7v-2.5h2.458a.322.322 0 00.214-.106.34.34 0 000-.455.322.322 0 00-.214-.107H4.797a1.085 1.085 0 01-.756-.342 1.147 1.147 0 01-.31-.787c0-.294.111-.577.31-.787.2-.211.47-.334.756-.343h4.978a1.071 1.071 0 01.792.305 1.129 1.129 0 01.347.792 1.16 1.16 0 01-.303.812 1.1 1.1 0 01-.774.35h-.742a.312.312 0 00-.222.109.331.331 0 00-.081.238c.004.083.037.16.093.22a.324.324 0 00.211.1h.313v2.506a9.072 9.072 0 001.081 4.4 10.935 10.935 0 01-3.305-.53 3.53 3.53 0 00-2.761 0 9.067 9.067 0 00.81-3.875zm1.75 4.49a13.03 13.03 0 002.78.55 11.45 11.45 0 01-4.53 1.261 1.973 1.973 0 01-1.06-.215 2.043 2.043 0 01-.8-.745A3.22 3.22 0 015.05 10.42a3.154 3.154 0 011.935.158zm6.139 7.142v-.009a1.459 1.459 0 01-.411.21c-.192.074-.395.11-.6.11H2.445c-.48.001-.94-.194-1.28-.542a1.889 1.889 0 01-.23-2.338l2.041-3.146a3.272 3.272 0 001.01.768c0 .01.009 0 .009 0 .1.045.2.085.304.12.33.12.679.173 1.028.154a13.508 13.508 0 001.5-.219 14.392 14.392 0 004.228-1.6v.01c.778 1.17 1.537 2.35 2.305 3.52l.259.393a1.88 1.88 0 01.272 1.39 1.878 1.878 0 01-.269.668c-.131.203-.3.376-.497.511h-.001z" fill="#416CE1"/>
  <path d="M10.084 11.026a11.507 11.507 0 01-5.05 1.605 2.125 2.125 0 01-1.208-.294 2.21 2.21 0 01-.855-.926 3.288 3.288 0 011.823-1.276 3.205 3.205 0 012.196.195c1 .363 2.039.596 3.094.696z" fill="#416CE1"/>
  <path d="M13.113 17.686a1.739 1.739 0 01-1.01.326H2.454a1.817 1.817 0 01-1.288-.574 1.922 1.922 0 01-.52-1.342c0-.376.106-.745.307-1.06l2.042-3.25c.285.351.645.632 1.051.819.407.187.85.276 1.296.26a13.847 13.847 0 005.713-1.875c.77 1.212 1.53 2.426 2.299 3.638l.26.408c.264.423.36.935.266 1.429a1.957 1.957 0 01-.768 1.221z" fill="#509FFA"/>
</svg>
