<svg xmlns="http://www.w3.org/2000/svg" fill="none" viewBox="0 0 48 48">
  <path d="M43.826.782H4.174A3.391 3.391 0 00.783 4.174v39.652a3.391 3.391 0 003.39 3.391h39.653a3.391 3.391 0 003.391-3.391V4.174a3.391 3.391 0 00-3.39-3.392z" stroke="#418DFF" stroke-width="1.5" stroke-linecap="round" stroke-dasharray="6 6"/>
  <path d="M14.995 31.699c0-4.118 5.646-4.591 9.893-4.591 2.446 0 9.891 0 9.891 4.617 0 4.115-5.645 4.591-9.89 4.591-2.448 0-9.894 0-9.894-4.617zm1.878 0c0 1.82 2.698 2.744 8.02 2.744 5.321 0 8.017-.915 8.017-2.72 0-1.82-2.698-2.743-8.017-2.743-5.32 0-8.02.915-8.02 2.719zm7.98-6.938a6.632 6.632 0 11.035-13.264 6.632 6.632 0 110 13.264h-.034zm-4.814-6.632a4.838 4.838 0 004.814 4.846l.035.892v-.892a4.85 4.85 0 10-4.849-4.846zM16.91 25h-5.82c-.595 0-1.09-.453-1.09-1 0-.547.495-1 1.09-1h5.82c.596 0 1.09.453 1.09 1 0 .547-.494 1-1.09 1z" fill="#416CE1"/>
  <path d="M14 28c-.547 0-1-.494-1-1.09v-5.82c0-.596.453-1.09 1-1.09.547 0 1 .494 1 1.09v5.82c0 .596-.453 1.09-1 1.09z" fill="#416CE1"/>
</svg>
